<?xml version="1.0" encoding="utf-8"?>
<!-- Generator: Adobe Illustrator 17.0.0, SVG Export Plug-In . SVG Version: 6.00 Build 0)  -->
<!DOCTYPE svg PUBLIC "-//W3C//DTD SVG 1.1//EN" "http://www.w3.org/Graphics/SVG/1.1/DTD/svg11.dtd">
<svg version="1.1" id="Capa_1" xmlns="http://www.w3.org/2000/svg" xmlns:xlink="http://www.w3.org/1999/xlink" x="0px" y="0px"
	 width="425.963px" height="425.963px" viewBox="0 0 425.963 425.963" enable-background="new 0 0 425.963 425.963"
	 xml:space="preserve">
<g  transform="scale(4) translate(5,5)">
<path id="gr" d="M0.007-5h-0.014c-1.727,0-3.132,1.404-3.132,3.131c0,1.132,0.515,2.625,1.532,4.439c0.754,1.345,1.518,2.375,1.525,2.385
		C-0.061,4.983-0.027,5,0.008,5C0.009,5,0.01,5,0.011,5c0.037-0.001,0.07-0.02,0.091-0.05C0.11,4.938,0.868,3.793,1.617,2.391
		C2.627,0.5,3.139-0.933,3.139-1.869C3.139-3.596,1.734-5,0.007-5z M1.453-1.793C1.453-0.992,0.801-0.34,0-0.34
		c-0.801,0-1.453-0.652-1.453-1.453S-0.801-3.245,0-3.245C0.801-3.245,1.453-2.594,1.453-1.793z"/>
</g>
</svg>
