<?xml version="1.0" encoding="utf-8"?>
<!-- Generator: Adobe Illustrator 17.0.0, SVG Export Plug-In . SVG Version: 6.00 Build 0)  -->
<!DOCTYPE svg PUBLIC "-//W3C//DTD SVG 1.1//EN" "http://www.w3.org/Graphics/SVG/1.1/DTD/svg11.dtd">
<svg version="1.1" id="Capa_1" xmlns="http://www.w3.org/2000/svg" xmlns:xlink="http://www.w3.org/1999/xlink" x="0px" y="0px"
	 width="612px" height="792px" viewBox="0 0 612 792" enable-background="new 0 0 612 792" xml:space="preserve">
<g  transform="scale(4) translate(5,5)">
<path id="gr" d="M2.542-2.458C2.542-3.859,1.402-5,0-5s-2.542,1.141-2.542,2.542c0,1.345,1.05,2.446,2.373,2.534v4.754
	C-0.169,4.924-0.094,5,0,5s0.169-0.076,0.169-0.169V0.076C1.492-0.012,2.542-1.113,2.542-2.458z M-0.847-2.458
	c-0.374,0-0.678-0.304-0.678-0.678s0.304-0.678,0.678-0.678s0.678,0.304,0.678,0.678S-0.474-2.458-0.847-2.458z"/>
</g>
</svg>
