<?xml version="1.0" encoding="utf-8"?>
<svg version="1.1" id="Capa_1" xmlns="http://www.w3.org/2000/svg" xmlns:xlink="http://www.w3.org/1999/xlink" >
	
	 <g  transform="scale(4) translate(5,5)">
<path id="gr" d="M0.483-4.686l1.128,2.39c0.078,0.166,0.23,0.281,0.406,0.308l2.522,0.383C4.98-1.538,5.156-0.97,4.837-0.645l-1.825,1.86
	C2.885,1.345,2.827,1.531,2.857,1.714L3.288,4.34C3.363,4.8,2.901,5.151,2.506,4.934l-2.256-1.24c-0.157-0.086-0.344-0.086-0.501,0
	l-2.256,1.24C-2.901,5.151-3.363,4.8-3.288,4.34l0.431-2.627c0.03-0.183-0.028-0.369-0.155-0.498l-1.825-1.86
	c-0.32-0.326-0.143-0.893,0.298-0.96l2.522-0.383c0.175-0.027,0.327-0.142,0.406-0.308l1.128-2.39
	C-0.285-5.105,0.285-5.105,0.483-4.686z"/>
	</g>
</svg>
